<?xml version="1.0" encoding="UTF-8"?>
<svg width="640px" height="640px" viewBox="0 0 640 640" version="1.1" xmlns="http://www.w3.org/2000/svg" xmlns:xlink="http://www.w3.org/1999/xlink">
    <title>en</title>
    <g id="en" stroke="none" fill="none" fill-rule="evenodd" stroke-width="1">
        <g id="flag-icons-gb">
            <polygon id="Path" fill="#012169" fill-rule="nonzero" points="0 0 640 0 640 640 0 640"></polygon>
            <polygon id="Path" fill="#FFFFFF" fill-rule="nonzero" points="75 0 319 241.333333 562 0 640 0 640 82.6666667 400 321.333333 640 558.666667 640 640 560 640 320 401.333333 81 640 0 640 0 560 239 322.666667 0 85.3333333 0 0"></polygon>
            <path d="M424,374.666667 L640,586.666667 L640,640 L369,374.666667 L424,374.666667 Z M240,401.333333 L246,448 L54,640 L0,640 L240,401.333333 Z M640,0 L640,4 L391,254.666667 L393,196 L590,0 L640,0 Z M0,0 L239,234.666667 L179,234.666667 L0,56 L0,0 Z" id="Shape" fill="#C8102E" fill-rule="nonzero"></path>
            <path d="M241,0 L241,640 L401,640 L401,0 L241,0 Z M0,213.333333 L0,426.666667 L640,426.666667 L640,213.333333 L0,213.333333 Z" id="Shape" fill="#FFFFFF" fill-rule="nonzero"></path>
            <path d="M0,257.333333 L0,385.333333 L640,385.333333 L640,257.333333 L0,257.333333 Z M273,0 L273,640 L369,640 L369,0 L273,0 Z" id="Shape" fill="#C8102E" fill-rule="nonzero"></path>
        </g>
    </g>
</svg>