<?xml version="1.0" encoding="UTF-8"?>
<svg width="640px" height="640px" viewBox="0 0 640 640" version="1.1" xmlns="http://www.w3.org/2000/svg" xmlns:xlink="http://www.w3.org/1999/xlink">
    <title>Frisian_flag</title>
    <g id="Frisian_flag" stroke="none" fill="none" fill-rule="evenodd" stroke-width="1">
        <g id="Group" transform="translate(-142.2222, 0)">
            <rect id="Rectangle" fill="#0155A5" fill-rule="nonzero" x="0" y="0" width="924.444444" height="640"></rect>
            <g fill="#FFFFFF" fill-rule="nonzero" id="Path">
                <polygon points="0 274.285714 0 457.142857 264.126984 640 528.253968 640"></polygon>
                <polygon points="132.063492 0 0 0 0 91.4285714 792.380952 640 924.444444 640 924.444444 548.571429"></polygon>
                <polygon points="396.190476 0 660.31746 0 924.444444 182.857143 924.444444 365.714286"></polygon>
            </g>
            <g id="pomp-link" transform="translate(376.0477, 236.2017)" fill="#EE3E34" fill-rule="nonzero">
                <path d="M86.174886,140.179309 C48.5140503,135.13515 20.3971082,103.001838 20.3971082,65.0047055 C20.3971082,44.245812 35.1219653,27.4174039 53.2859971,27.4174039 C67.576808,27.2680243 79.6905062,41.4006721 81.4764733,60.3062928 C81.4764733,62.9011544 83.5800243,65.0047055 86.174886,65.0047055 C88.7697477,65.0047055 90.8732987,62.9011544 90.8732987,60.3062928 C92.6592658,41.4006721 104.772964,27.2680243 119.063775,27.4174039 C127.786451,27.4174039 136.151868,31.3774832 142.319731,38.4264696 C148.487594,45.475456 151.952664,55.0359333 151.952664,65.0047055 C151.952664,103.001838 123.835722,135.13515 86.174886,140.179309 L86.174886,140.179309 Z" id="pomp" transform="translate(86.1749, 83.7978) rotate(34.695) translate(-86.1749, -83.7978)"></path>
            </g>
            <g id="pomp-link" transform="translate(6.2699, 345.916)" fill="#EE3E34" fill-rule="nonzero">
                <path d="M86.174886,140.179309 C48.5140503,135.13515 20.3971082,103.001838 20.3971082,65.0047055 C20.3971082,44.245812 35.1219653,27.4174039 53.2859971,27.4174039 C67.576808,27.2680243 79.6905062,41.4006721 81.4764733,60.3062928 C81.4764733,62.9011544 83.5800243,65.0047055 86.174886,65.0047055 C88.7697477,65.0047055 90.8732987,62.9011544 90.8732987,60.3062928 C92.6592658,41.4006721 104.772964,27.2680243 119.063775,27.4174039 C127.786451,27.4174039 136.151868,31.3774832 142.319731,38.4264696 C148.487594,45.475456 151.952664,55.0359333 151.952664,65.0047055 C151.952664,103.001838 123.835722,135.13515 86.174886,140.179309 L86.174886,140.179309 Z" id="pomp" transform="translate(86.1749, 83.7978) rotate(34.695) translate(-86.1749, -83.7978)"></path>
            </g>
            <g id="pomp-link" transform="translate(745.8254, 126.4875)" fill="#EE3E34" fill-rule="nonzero">
                <path d="M86.174886,140.179309 C48.5140503,135.13515 20.3971082,103.001838 20.3971082,65.0047055 C20.3971082,44.245812 35.1219653,27.4174039 53.2859971,27.4174039 C67.576808,27.2680243 79.6905062,41.4006721 81.4764733,60.3062928 C81.4764733,62.9011544 83.5800243,65.0047055 86.174886,65.0047055 C88.7697477,65.0047055 90.8732987,62.9011544 90.8732987,60.3062928 C92.6592658,41.4006721 104.772964,27.2680243 119.063775,27.4174039 C127.786451,27.4174039 136.151868,31.3774832 142.319731,38.4264696 C148.487594,45.475456 151.952664,55.0359333 151.952664,65.0047055 C151.952664,103.001838 123.835722,135.13515 86.174886,140.179309 L86.174886,140.179309 Z" id="pomp" transform="translate(86.1749, 83.7978) rotate(34.695) translate(-86.1749, -83.7978)"></path>
            </g>
            <g id="pomp-link" transform="translate(129.5288, 65.5351)" fill="#EE3E34" fill-rule="nonzero">
                <path d="M86.174886,140.179309 C48.5140503,135.13515 20.3971082,103.001838 20.3971082,65.0047055 C20.3971082,44.245812 35.1219653,27.4174039 53.2859971,27.4174039 C67.576808,27.2680243 79.6905062,41.4006721 81.4764733,60.3062928 C81.4764733,62.9011544 83.5800243,65.0047055 86.174886,65.0047055 C88.7697477,65.0047055 90.8732987,62.9011544 90.8732987,60.3062928 C92.6592658,41.4006721 104.772964,27.2680243 119.063775,27.4174039 C127.786451,27.4174039 136.151868,31.3774832 142.319731,38.4264696 C148.487594,45.475456 151.952664,55.0359333 151.952664,65.0047055 C151.952664,103.001838 123.835722,135.13515 86.174886,140.179309 L86.174886,140.179309 Z" id="pomp" transform="translate(86.1749, 83.7978) rotate(34.695) translate(-86.1749, -83.7978)"></path>
            </g>
            <g id="pomp-link" transform="translate(622.5665, 406.8684)" fill="#EE3E34" fill-rule="nonzero">
                <path d="M86.174886,140.179309 C48.5140503,135.13515 20.3971082,103.001838 20.3971082,65.0047055 C20.3971082,44.245812 35.1219653,27.4174039 53.2859971,27.4174039 C67.576808,27.2680243 79.6905062,41.4006721 81.4764733,60.3062928 C81.4764733,62.9011544 83.5800243,65.0047055 86.174886,65.0047055 C88.7697477,65.0047055 90.8732987,62.9011544 90.8732987,60.3062928 C92.6592658,41.4006721 104.772964,27.2680243 119.063775,27.4174039 C127.786451,27.4174039 136.151868,31.3774832 142.319731,38.4264696 C148.487594,45.475456 151.952664,55.0359333 151.952664,65.0047055 C151.952664,103.001838 123.835722,135.13515 86.174886,140.179309 L86.174886,140.179309 Z" id="pomp" transform="translate(86.1749, 83.7978) rotate(34.695) translate(-86.1749, -83.7978)"></path>
            </g>
            <g id="pomp-link" transform="translate(585.6375, 15.5887)" fill="#EE3E34" fill-rule="nonzero">
                <path d="M86.174886,140.179309 C48.5140503,135.13515 20.3971082,103.001838 20.3971082,65.0047055 C20.3971082,44.245812 35.1219653,27.4174039 53.2859971,27.4174039 C67.576808,27.2680243 79.6905062,41.4006721 81.4764733,60.3062928 C81.4764733,62.9011544 83.5800243,65.0047055 86.174886,65.0047055 C88.7697477,65.0047055 90.8732987,62.9011544 90.8732987,60.3062928 C92.6592658,41.4006721 104.772964,27.2680243 119.063775,27.4174039 C127.786451,27.4174039 136.151868,31.3774832 142.319731,38.4264696 C148.487594,45.475456 151.952664,55.0359333 151.952664,65.0047055 C151.952664,103.001838 123.835722,135.13515 86.174886,140.179309 L86.174886,140.179309 Z" id="pomp" transform="translate(86.1749, 83.7978) rotate(34.695) translate(-86.1749, -83.7978)"></path>
            </g>
            <g id="pomp-link" transform="translate(166.4578, 456.8148)" fill="#EE3E34" fill-rule="nonzero">
                <path d="M86.174886,140.179309 C48.5140503,135.13515 20.3971082,103.001838 20.3971082,65.0047055 C20.3971082,44.245812 35.1219653,27.4174039 53.2859971,27.4174039 C67.576808,27.2680243 79.6905062,41.4006721 81.4764733,60.3062928 C81.4764733,62.9011544 83.5800243,65.0047055 86.174886,65.0047055 C88.7697477,65.0047055 90.8732987,62.9011544 90.8732987,60.3062928 C92.6592658,41.4006721 104.772964,27.2680243 119.063775,27.4174039 C127.786451,27.4174039 136.151868,31.3774832 142.319731,38.4264696 C148.487594,45.475456 151.952664,55.0359333 151.952664,65.0047055 C151.952664,103.001838 123.835722,135.13515 86.174886,140.179309 L86.174886,140.179309 Z" id="pomp" transform="translate(86.1749, 83.7978) rotate(34.695) translate(-86.1749, -83.7978)"></path>
            </g>
        </g>
    </g>
</svg>